<svg id="Слой_1" data-name="Слой 1" xmlns="http://www.w3.org/2000/svg" viewBox="0 0 702.2 279.4"><defs><style>.cls-1{fill:#fff;fill-rule:evenodd;}</style></defs><g id="Слой_2" data-name="Слой 2"><g id="Слой_1-2" data-name="Слой 1-2"><path class="cls-1" d="M177.4,214.8a63,63,0,0,1-5,23.1,54.9,54.9,0,0,1-12.1,18,52.46,52.46,0,0,1-18.1,11.6,61.86,61.86,0,0,1-22.9,4.1,62.17,62.17,0,0,1-23.8-4.5,56.63,56.63,0,0,1-18.7-12.6,58.24,58.24,0,0,1-12.2-19.1,65.88,65.88,0,0,1-4.3-24.1A63.49,63.49,0,0,1,64.8,187a57.91,57.91,0,0,1,12.3-19.2,55.62,55.62,0,0,1,18.7-12.6,60.76,60.76,0,0,1,23.5-4.6,66.48,66.48,0,0,1,19.8,3,58.54,58.54,0,0,1,16.7,8.5,52.32,52.32,0,0,1,12.6,13.1,45.7,45.7,0,0,1,7,16.7h-5.6a40.64,40.64,0,0,0-6.6-14.5A49.34,49.34,0,0,0,151.8,166a57.28,57.28,0,0,0-15-7.6,54.2,54.2,0,0,0-17.5-2.6A53.52,53.52,0,0,0,98,159.9a48.83,48.83,0,0,0-16.9,11.5A55,55,0,0,0,69.9,189a63.7,63.7,0,0,0-.1,44.5,52.23,52.23,0,0,0,11.1,17.4,50,50,0,0,0,16.9,11.4,54.48,54.48,0,0,0,21.5,4.1,56.13,56.13,0,0,0,19.8-3.4,48.18,48.18,0,0,0,16-9.5,49.07,49.07,0,0,0,11.2-14.7,53.88,53.88,0,0,0,5.3-18.9H113.8v-5.2Z"/><path class="cls-1" d="M285,224.4v2.4H199.7a44.75,44.75,0,0,0,3.5,16.1,39.35,39.35,0,0,0,8.5,12.7,37.55,37.55,0,0,0,12.7,8.4,38.51,38.51,0,0,0,15.7,3,39,39,0,0,0,21.5-5.9,41.75,41.75,0,0,0,14.7-16.5h5.8c-4.3,9.1-10,16-17.2,20.7a44.39,44.39,0,0,1-24.8,7,45,45,0,0,1-42.4-28.6,52.66,52.66,0,0,1-3.5-18.8,47.8,47.8,0,0,1,3.5-18.7,46,46,0,0,1,60.4-24.9,43.68,43.68,0,0,1,23.5,24.6A47.07,47.07,0,0,1,285,224.4Zm-44.9-41.5a40.43,40.43,0,0,0-15.4,2.8,36.9,36.9,0,0,0-12.5,8.1,41.33,41.33,0,0,0-12.4,27.7h79.9a43.06,43.06,0,0,0-3.8-15.7,41.79,41.79,0,0,0-8.5-12.2,36.64,36.64,0,0,0-12.2-7.9,38.93,38.93,0,0,0-15.1-2.8Z"/><path class="cls-1" d="M342.4,178.6a38,38,0,0,1,14.9,2.8,32,32,0,0,1,11.2,8,37.23,37.23,0,0,1,7.2,12.3,47.85,47.85,0,0,1,2.5,16v54h-5.4v-53c0-10.9-2.8-19.5-8.3-25.7s-13.2-9.3-23.1-9.3a33.74,33.74,0,0,0-13.3,2.8,36.57,36.57,0,0,0-11.1,7.6,38.13,38.13,0,0,0-7.5,11.1,30.57,30.57,0,0,0-2.8,13.3v53.2h-5.4V180.4h4.5l.8,21.2A39.7,39.7,0,0,1,320.9,185,39.22,39.22,0,0,1,342.4,178.6Z"/><path class="cls-1" d="M485.6,224.4v2.4H400.4a44.75,44.75,0,0,0,3.5,16.1,39.35,39.35,0,0,0,8.5,12.7,37.55,37.55,0,0,0,12.7,8.4,38.51,38.51,0,0,0,15.7,3,39.83,39.83,0,0,0,21.5-5.9A41.75,41.75,0,0,0,477,244.6h5.7c-4.3,9.1-10,16-17.2,20.7a46.13,46.13,0,0,1-67.1-21.6,52.66,52.66,0,0,1-3.5-18.8,47.8,47.8,0,0,1,3.5-18.7,44.93,44.93,0,0,1,42.4-28.5,43.62,43.62,0,0,1,41.5,28.2A53.06,53.06,0,0,1,485.6,224.4Zm-44.9-41.5a40.43,40.43,0,0,0-15.4,2.8,36.9,36.9,0,0,0-12.5,8.1,41.33,41.33,0,0,0-12.4,27.7h79.9a43.06,43.06,0,0,0-3.8-15.7,41.79,41.79,0,0,0-8.5-12.2,36.64,36.64,0,0,0-12.2-7.9,37.8,37.8,0,0,0-15.1-2.8Z"/><path class="cls-1" d="M536.5,272.6c-10.2,0-18.4-2.4-24.5-7.1s-9.4-11.3-10.1-19.6h5.2c.8,6.9,3.7,12.2,8.9,15.9s12,5.6,20.7,5.6,15.8-1.9,21-5.6a17.47,17.47,0,0,0,7.8-15.2c0-4-.8-7.2-2.5-9.6a17.7,17.7,0,0,0-6.8-5.9,40.63,40.63,0,0,0-9.6-3.4c-3.6-.8-7.3-1.5-11-2.2-3.9-.7-7.8-1.4-11.7-2.3a37.3,37.3,0,0,1-10.3-3.7,19.11,19.11,0,0,1-7.3-6.5c-1.9-2.8-2.8-6.4-2.8-10.9a21.58,21.58,0,0,1,2.4-9.9,23.35,23.35,0,0,1,6.6-7.7,34.6,34.6,0,0,1,10.2-5,49.61,49.61,0,0,1,13.3-1.8c9.8,0,17.6,2.3,23.3,6.9s8.8,10.9,9.3,18.7h-5.4a19.61,19.61,0,0,0-7.8-15c-4.7-3.6-11.3-5.4-19.6-5.4-8.1,0-14.5,1.7-19.4,5.2a16.21,16.21,0,0,0-7.3,13.9,14.5,14.5,0,0,0,2.3,8.3,16.7,16.7,0,0,0,6.1,5.1,34.38,34.38,0,0,0,8.9,2.9c3.4.7,6.9,1.4,10.6,2q5.85,1,12,2.4a40.67,40.67,0,0,1,11,4.1,22.41,22.41,0,0,1,7.9,7.4c2,3.1,3,7.2,3,12.2a22.43,22.43,0,0,1-9.5,18.9,34.23,34.23,0,0,1-10.9,5.2A44,44,0,0,1,536.5,272.6Z"/><path class="cls-1" d="M586.7,161.1h7.9v-9.5h-7.9Zm1.2,111.4h5.4V181.3h-5.4Z"/><path class="cls-1" d="M646.4,272.6c-10.2,0-18.4-2.4-24.5-7.1s-9.5-11.3-10.1-19.6H617c.8,6.9,3.7,12.2,8.8,15.9s12,5.6,20.7,5.6,15.8-1.9,21-5.6a17.47,17.47,0,0,0,7.8-15.2c0-4-.8-7.2-2.5-9.6a17.7,17.7,0,0,0-6.8-5.9,40.38,40.38,0,0,0-9.6-3.3c-3.6-.8-7.3-1.5-11-2.2-3.9-.7-7.8-1.4-11.6-2.3a42.28,42.28,0,0,1-10.3-3.7,19.36,19.36,0,0,1-7.3-6.6c-1.9-2.8-2.8-6.4-2.8-10.9a21.58,21.58,0,0,1,2.4-9.9,24.39,24.39,0,0,1,6.6-7.7,34.6,34.6,0,0,1,10.2-5,48.88,48.88,0,0,1,13.2-1.8c9.8,0,17.6,2.3,23.3,6.9s8.8,10.9,9.3,18.7H673a19.61,19.61,0,0,0-7.8-15c-4.7-3.6-11.3-5.4-19.6-5.4-8.1,0-14.6,1.7-19.4,5.2a16.21,16.21,0,0,0-7.3,13.9,14.5,14.5,0,0,0,2.3,8.3,16.24,16.24,0,0,0,6.2,5.1,34.59,34.59,0,0,0,8.9,3c3.4.7,6.9,1.4,10.6,2q5.85,1,12,2.4a40.67,40.67,0,0,1,11,4.1,23.34,23.34,0,0,1,7.9,7.4c2,3.1,3,7.2,3,12.2a22.43,22.43,0,0,1-9.5,18.9,34.23,34.23,0,0,1-10.9,5.2A46.94,46.94,0,0,1,646.4,272.6Z"/><path class="cls-1" d="M60.2,13.1A39.23,39.23,0,0,1,75,15.8a36.77,36.77,0,0,1,11.8,7.6,32.17,32.17,0,0,1,7.8,11.5,36.5,36.5,0,0,1,2.8,14.6,38.31,38.31,0,0,1-2.8,14.6,35.39,35.39,0,0,1-7.8,11.6A36.77,36.77,0,0,1,75,83.3,37.86,37.86,0,0,1,60.1,86H45v27.8H17.2V13.1ZM56.9,61.7a11.9,11.9,0,0,0,8.8-3.4A12.55,12.55,0,0,0,69,49.5a12.39,12.39,0,0,0-3.3-8.8,11.61,11.61,0,0,0-8.8-3.5H45V61.7Z"/><path class="cls-1" d="M150.9,33.9a30.18,30.18,0,0,1,12.2,2.4,27.33,27.33,0,0,1,9.2,6.6,32.56,32.56,0,0,1,5.9,10.4A45.07,45.07,0,0,1,180.3,67v46.8H153.5V70c0-9-3.4-13.5-10.1-13.5a12,12,0,0,0-9.6,4.1c-2.4,2.7-3.6,6.6-3.5,11.8v41.5H103.5V8h26.8V41.3a30.81,30.81,0,0,1,9.5-5.4,27.38,27.38,0,0,1,11.1-2"/><path class="cls-1" d="M275.7,36l-32.6,74.4a104.57,104.57,0,0,1-7.9,15.2,39.3,39.3,0,0,1-8.6,10,29.78,29.78,0,0,1-10.4,5.5,45.82,45.82,0,0,1-13.3,1.7h-9.2V119.7H201a34.93,34.93,0,0,0,6.5-.6,11.35,11.35,0,0,0,4.5-2,11,11,0,0,0,3.3-3.8,33.29,33.29,0,0,0,2.7-6.1L186,36h29.1l16.4,42.8L246.9,36Z"/><path class="cls-1" d="M315.8,116.5a46.21,46.21,0,0,1-14.3-2,30.7,30.7,0,0,1-10.7-5.7,25.8,25.8,0,0,1-6.8-8.9,27.09,27.09,0,0,1-2.5-11.5h25.8a7.72,7.72,0,0,0,2.6,6.3,9.59,9.59,0,0,0,6.3,2.1,9.88,9.88,0,0,0,5.3-1.5,5.09,5.09,0,0,0,2.3-4.5c0-2.2-1.3-3.8-3.9-4.7a76.17,76.17,0,0,0-9.4-2.4c-3-.5-6.1-1.1-9.5-1.9a30.55,30.55,0,0,1-9.1-3.9,21,21,0,0,1-6.8-7.1c-1.8-3-2.7-6.8-2.7-11.5a24.19,24.19,0,0,1,2.4-10.6,23.87,23.87,0,0,1,6.7-8.1,30.81,30.81,0,0,1,10.4-5.2,48,48,0,0,1,13.6-1.8A46.8,46.8,0,0,1,329,35.4a30.57,30.57,0,0,1,10.3,5.3,23.5,23.5,0,0,1,6.6,8.4,25.49,25.49,0,0,1,2.5,10.8H323.3c0-2.5-.7-4.3-2.2-5.5a9.09,9.09,0,0,0-6-1.8,8.41,8.41,0,0,0-5.3,1.5,5,5,0,0,0-1.9,4.3c0,2.2,1.3,3.7,4,4.5a77,77,0,0,0,9.5,2.2c3.1.6,6.3,1.3,9.6,2a31.21,31.21,0,0,1,9.3,3.7,19.57,19.57,0,0,1,7,7c1.8,3,2.7,6.9,2.7,11.8a25.94,25.94,0,0,1-2.4,11,23,23,0,0,1-7,8.5,33.94,33.94,0,0,1-10.9,5.5,51.86,51.86,0,0,1-13.9,1.9"/><path class="cls-1" d="M418.4,90.8v23.5H400c-8.7,0-15.5-2.4-20.4-7.3s-7.3-11.7-7.3-20.5V57.1H358V50.9l34.9-37.2h5.5V36.5H418V57H399.1V81.8a8.31,8.31,0,0,0,7.6,9h11.7Z"/><path class="cls-1" d="M509,74.6c0,1.2,0,2.3-.1,3.5s-.2,2.4-.4,3.6H450.7q1.35,6.75,5.4,10.2a18,18,0,0,0,18.8,1.4,14.1,14.1,0,0,0,5.7-5.4h26.7a40.67,40.67,0,0,1-5.9,12,41.79,41.79,0,0,1-9.1,9.2,43.2,43.2,0,0,1-11.8,5.8,47.25,47.25,0,0,1-30.7-1.2,40.21,40.21,0,0,1-22.3-21.8,42.53,42.53,0,0,1-3.2-16.5,41.25,41.25,0,0,1,3.2-16.6A39,39,0,0,1,449.7,37a48.26,48.26,0,0,1,34.1.1,41.17,41.17,0,0,1,13.5,8.7A39.18,39.18,0,0,1,506,58.7,44.48,44.48,0,0,1,509,74.6ZM466.5,54.9a15,15,0,0,0-15.5,12h31.6c-2.6-8-7.9-12-16.1-12Z"/><path class="cls-1" d="M557.7,116.9a46,46,0,0,1-17.2-3.1,40.57,40.57,0,0,1-13.6-8.7A37.13,37.13,0,0,1,518,91.9a45.48,45.48,0,0,1-3.2-16.7A41.73,41.73,0,0,1,518,58.5a36.37,36.37,0,0,1,8.9-13A41,41,0,0,1,540.5,37a50.71,50.71,0,0,1,32.6-.6,37.61,37.61,0,0,1,12.5,7,38,38,0,0,1,9,10.9,39.46,39.46,0,0,1,4.5,14.1H572.9a15.61,15.61,0,0,0-5.8-7.6,15.45,15.45,0,0,0-9.3-2.8,15.61,15.61,0,0,0-11.7,4.7c-3,3.2-4.4,7.4-4.4,12.6s1.5,9.3,4.6,12.5a15.79,15.79,0,0,0,22.3.8,16.15,16.15,0,0,0,4.4-7.3h26.4a45.52,45.52,0,0,1-4.6,14.5,37.68,37.68,0,0,1-9,11.2,41.14,41.14,0,0,1-12.5,7.2,45,45,0,0,1-15.6,2.7"/><path class="cls-1" d="M652.6,34.3a30.18,30.18,0,0,1,12.2,2.4,27.33,27.33,0,0,1,9.2,6.6,30.52,30.52,0,0,1,5.8,10.4,40,40,0,0,1,2.1,13.7v46.9H655.1V70.5c0-9-3.4-13.5-10.1-13.5a11.72,11.72,0,0,0-9.6,4.1c-2.4,2.7-3.5,6.7-3.5,11.8v41.5H605V8.4h26.8V41.7a30.81,30.81,0,0,1,9.5-5.4,29,29,0,0,1,11.3-2"/><path class="cls-1" d="M32.2,242.3A15.2,15.2,0,1,1,17,257.4a15.19,15.19,0,0,1,15.2-15.1"/></g></g></svg>